<svg id="Слой_1" data-name="Слой 1" xmlns="http://www.w3.org/2000/svg" viewBox="0 0 59.88 83.5"><defs><style>.cls-1,.cls-11,.cls-6,.cls-7,.cls-8{fill:#fff;}.cls-1,.cls-10,.cls-11,.cls-3,.cls-4,.cls-5,.cls-6,.cls-7,.cls-8,.cls-9{stroke:#303030;}.cls-1,.cls-3,.cls-6,.cls-8,.cls-9{stroke-linecap:round;stroke-linejoin:round;}.cls-1,.cls-10,.cls-11,.cls-3{stroke-width:0.75px;}.cls-2{fill:#008fda;}.cls-10,.cls-3,.cls-4,.cls-5,.cls-9{fill:none;}.cls-10,.cls-11,.cls-4,.cls-5,.cls-7{stroke-miterlimit:10;}.cls-4,.cls-6,.cls-7,.cls-9{stroke-width:0.5px;}.cls-5{stroke-width:0.25px;}</style></defs><title>плк и промыш сет интерфейсы</title><rect class="cls-1" x="15.38" y="1.25" width="34" height="78" rx="2.04" ry="2.04"/><rect class="cls-2" x="23.48" y="6.75" width="18" height="22"/><rect class="cls-3" x="17.48" y="4.25" width="30" height="49"/><rect class="cls-1" x="0.38" y="1.25" width="15" height="76"/><circle class="cls-4" cx="24.73" cy="33.09" r="3.11"/><circle class="cls-4" cx="24.73" cy="33.09" r="2.27"/><circle class="cls-4" cx="38.73" cy="33.09" r="3.11"/><circle class="cls-4" cx="38.73" cy="33.09" r="2.27"/><path class="cls-2" d="M40.83,43.92a.51.51,0,0,1,.28.08l2.27,1.55c.14.09.13.23,0,.32l-2.26,1.35a.5.5,0,0,1-.4.05c-.14,0-.23-.12-.23-.21l0-2.9c0-.1.1-.18.24-.22Z" transform="translate(-1.6 -2.15)"/><circle class="cls-4" cx="40.09" cy="43.45" r="3.11"/><path class="cls-2" d="M25.83,43.92a.51.51,0,0,1,.28.08l2.27,1.55c.14.09.13.23,0,.32l-2.26,1.35a.5.5,0,0,1-.4.05c-.14,0-.23-.12-.23-.21l0-2.9c0-.1.1-.18.24-.22Z" transform="translate(-1.6 -2.15)"/><circle class="cls-4" cx="25.09" cy="43.45" r="3.11"/><circle class="cls-2" cx="51.87" cy="38.92" r="1.19"/><circle class="cls-2" cx="51.87" cy="41.72" r="1.19"/><circle class="cls-2" cx="51.87" cy="44.52" r="1.19"/><circle class="cls-5" cx="58.28" cy="39.93" r="0.6"/><circle class="cls-5" cx="58.28" cy="42.73" r="0.6"/><circle class="cls-5" cx="58.28" cy="45.53" r="0.6"/><circle class="cls-5" cx="58.28" cy="48.33" r="0.6"/><circle class="cls-5" cx="58.28" cy="51.13" r="0.6"/><circle class="cls-5" cx="58.28" cy="53.93" r="0.6"/><circle class="cls-5" cx="58.28" cy="58.93" r="0.6"/><circle class="cls-5" cx="58.28" cy="61.93" r="0.6"/><circle class="cls-2" cx="51.87" cy="47.32" r="1.19"/><circle class="cls-2" cx="51.87" cy="50.12" r="1.19"/><circle class="cls-2" cx="51.87" cy="52.92" r="1.19"/><circle class="cls-2" cx="51.87" cy="58.12" r="1.19"/><circle class="cls-2" cx="51.87" cy="60.92" r="1.19"/><circle class="cls-2" cx="43.1" cy="8.26" r="1.19"/><path class="cls-1" d="M48.58,56.4c-9.12,5.44-18.8,5.34-29,0v-2h29Z" transform="translate(-1.6 -2.15)"/><path class="cls-1" d="M19.42,74.25H44.33a1,1,0,0,1,1,1v2a0,0,0,0,1,0,0h-27a0,0,0,0,1,0,0v-2A1,1,0,0,1,19.42,74.25Z"/><line class="cls-1" x1="2.38" y1="1.75" x2="2.38" y2="76.75"/><line class="cls-6" x1="3.38" y1="6.75" x2="3.38" y2="72.75"/><line class="cls-6" x1="58.38" y1="5.25" x2="58.38" y2="37.75"/><rect class="cls-7" x="4.88" y="8.75" width="1" height="2"/><rect class="cls-7" x="4.88" y="14.75" width="1" height="2"/><polyline class="cls-7" points="5.88 9.33 9.88 9.33 9.88 15.75 5.88 15.75"/><line class="cls-1" x1="2.38" y1="6.75" x2="13.88" y2="6.75"/><line class="cls-1" x1="2.38" y1="18.25" x2="11.88" y2="18.25"/><line class="cls-8" x1="2.77" y1="33.06" x2="12.88" y2="33.06"/><line class="cls-8" x1="2.88" y1="73.25" x2="14.88" y2="73.25"/><line class="cls-1" x1="2.38" y1="21.25" x2="11.88" y2="21.25"/><path class="cls-8" d="M6,12.4" transform="translate(-1.6 -2.15)"/><polyline class="cls-7" points="4.88 10.75 4.88 11.75 3.88 11.75 3.88 13.75 4.88 13.75 4.88 14.75"/><rect class="cls-7" x="4.88" y="22.75" width="1" height="2"/><rect class="cls-7" x="4.88" y="28.75" width="1" height="2"/><polyline class="cls-7" points="5.88 23.33 9.88 23.33 9.88 29.75 5.88 29.75"/><polyline class="cls-7" points="4.88 24.75 4.88 25.75 3.88 25.75 3.88 27.75 4.88 27.75 4.88 28.75"/><rect class="cls-7" x="3.38" y="59.25" width="9" height="9"/><rect class="cls-7" x="4.88" y="59.75" width="1" height="2"/><rect class="cls-7" x="4.88" y="65.75" width="1" height="2"/><polyline class="cls-7" points="5.88 60.33 9.88 60.33 9.88 66.75 5.88 66.75"/><polyline class="cls-7" points="4.88 61.75 4.88 62.75 3.88 62.75 3.88 64.75 4.88 64.75 4.88 65.75"/><rect class="cls-1" x="12.38" y="7.25" width="2" height="29"/><path class="cls-2" d="M35.75,41.6c0,.14-.12.24-.22.24l-2.9,0c-.09,0-.18-.09-.21-.23a.52.52,0,0,1,0-.41l1.35-2.25a.17.17,0,0,1,.32,0l1.55,2.27a.54.54,0,0,1,.07.29A.57.57,0,0,1,35.75,41.6Z" transform="translate(-1.6 -2.15)"/><circle class="cls-4" cx="32.48" cy="38.45" r="3.11"/><path class="cls-2" d="M35.75,50.6c0,.14-.12.24-.22.24l-2.9,0c-.09,0-.18-.09-.21-.23a.52.52,0,0,1,0-.41l1.35-2.25a.17.17,0,0,1,.32,0l1.55,2.27a.54.54,0,0,1,.07.29A.57.57,0,0,1,35.75,50.6Z" transform="translate(-1.6 -2.15)"/><circle class="cls-4" cx="32.48" cy="47.45" r="3.11"/><path class="cls-9" d="M30.38,79.25h4a0,0,0,0,1,0,0v1.22a.78.78,0,0,1-.78.78H31.16a.78.78,0,0,1-.78-.78V79.25A0,0,0,0,1,30.38,79.25Z"/><rect class="cls-9" x="28.38" y="79.25" width="8" height="3"/><path class="cls-9" d="M27.38,79.25h10a0,0,0,0,1,0,0v3.48a.52.52,0,0,1-.52.52h-9a.52.52,0,0,1-.52-.52V79.25A0,0,0,0,1,27.38,79.25Z"/><path class="cls-9" d="M28,.25h9a.52.52,0,0,1,.52.52v.48a0,0,0,0,1,0,0h-10a0,0,0,0,1,0,0V.77A.52.52,0,0,1,28,.25Z"/><rect class="cls-3" x="49.38" y="1.25" width="10" height="75" rx="2.69" ry="2.69"/><line class="cls-10" x1="49.38" y1="4.83" x2="59.88" y2="4.83"/><line class="cls-10" x1="49.88" y1="72.25" x2="58.88" y2="72.25"/><rect class="cls-10" x="50.38" y="36.25" width="5.5" height="1"/><rect class="cls-10" x="50.38" y="55.25" width="5.5" height="1"/><line class="cls-4" x1="53.5" y1="37.5" x2="53.5" y2="55.5"/><line class="cls-4" x1="50.38" y1="36.75" x2="50.38" y2="54.75"/><line class="cls-4" x1="53.38" y1="56.75" x2="53.38" y2="63.75"/><line class="cls-4" x1="50.38" y1="56.75" x2="50.38" y2="63.75"/><line class="cls-4" x1="55.38" y1="37.5" x2="55.38" y2="55.5"/><line class="cls-4" x1="55.38" y1="56.75" x2="55.38" y2="63.75"/><path class="cls-4" d="M56,39.4" transform="translate(-1.6 -2.15)"/><path class="cls-5" d="M55.48,41.9" transform="translate(-1.6 -2.15)"/><line class="cls-5" x1="53.5" y1="39.97" x2="55.38" y2="39.97"/><line class="cls-5" x1="53.5" y1="40.97" x2="55.38" y2="40.97"/><line class="cls-5" x1="53.5" y1="42.97" x2="55.38" y2="42.97"/><line class="cls-5" x1="53.5" y1="43.97" x2="55.38" y2="43.97"/><line class="cls-5" x1="53.5" y1="45.97" x2="55.38" y2="45.97"/><line class="cls-5" x1="53.5" y1="46.97" x2="55.38" y2="46.97"/><line class="cls-5" x1="53.5" y1="48.97" x2="55.38" y2="48.97"/><line class="cls-5" x1="53.5" y1="49.97" x2="55.38" y2="49.97"/><line class="cls-5" x1="53.5" y1="51.97" x2="55.38" y2="51.97"/><line class="cls-5" x1="53.5" y1="52.97" x2="55.38" y2="52.97"/><line class="cls-5" x1="53.5" y1="58.97" x2="55.38" y2="58.97"/><line class="cls-5" x1="53.5" y1="59.97" x2="55.38" y2="59.97"/><line class="cls-5" x1="53.5" y1="61.97" x2="55.38" y2="61.97"/><rect class="cls-9" x="57.63" y="5.25" width="1.75" height="50.5"/><rect class="cls-9" x="57.63" y="56.25" width="1.75" height="7"/><line class="cls-9" x1="57.68" y1="37.75" x2="59.38" y2="37.75"/><line class="cls-9" x1="55.68" y1="37.75" x2="57.38" y2="37.75"/><line class="cls-9" x1="55.68" y1="62.75" x2="57.38" y2="62.75"/><rect class="cls-9" x="52.38" y="64.25" width="2" height="5"/><path class="cls-5" d="M55.88,5.25h1.5a0,0,0,0,1,0,0v1.5a0,0,0,0,1,0,0h-.44a1.06,1.06,0,0,1-1.06-1.06V5.25A0,0,0,0,1,55.88,5.25Z"/><rect class="cls-11" x="50.38" y="63.25" width="5.5" height="1"/></svg>